<svg width="200" height="203" viewBox="0 0 200 203" fill="none" xmlns="http://www.w3.org/2000/svg">
<g filter="url(#filter0_d_89_34)">
<path d="M100 195C152.467 195 195 152.467 195 100C195 47.5329 152.467 5 100 5C47.5329 5 5 47.5329 5 100C5 152.467 47.5329 195 100 195Z" fill="url(#paint0_linear_89_34)"/>
<path opacity="0.95" d="M99.5 179C143.407 179 179 143.407 179 99.5C179 55.5934 143.407 20 99.5 20C55.5934 20 20 55.5934 20 99.5C20 143.407 55.5934 179 99.5 179Z" fill="white"/>
<path d="M100 40V159" stroke="#E0E0E0" stroke-width="3"/>
<path d="M40 99H159" stroke="#E0E0E0" stroke-width="3"/>
<path d="M87.7273 45H52.2727C48.2561 45 45 48.2561 45 52.2727V87.7273C45 91.7439 48.2561 95 52.2727 95H87.7273C91.7439 95 95 91.7439 95 87.7273V52.2727C95 48.2561 91.7439 45 87.7273 45Z" fill="url(#paint1_linear_89_34)"/>
<path d="M146.727 45H111.273C107.256 45 104 48.2561 104 52.2727V87.7273C104 91.7439 107.256 95 111.273 95H146.727C150.744 95 154 91.7439 154 87.7273V52.2727C154 48.2561 150.744 45 146.727 45Z" fill="url(#paint2_linear_89_34)"/>
<path d="M87.7273 104H52.2727C48.2561 104 45 107.256 45 111.273V146.727C45 150.744 48.2561 154 52.2727 154H87.7273C91.7439 154 95 150.744 95 146.727V111.273C95 107.256 91.7439 104 87.7273 104Z" fill="url(#paint3_linear_89_34)"/>
<path d="M146.727 104H111.273C107.256 104 104 107.256 104 111.273V146.727C104 150.744 107.256 154 111.273 154H146.727C150.744 154 154 150.744 154 146.727V111.273C154 107.256 150.744 104 146.727 104Z" fill="url(#paint4_linear_89_34)"/>
<path d="M55 57C56.1046 57 57 56.1046 57 55C57 53.8954 56.1046 53 55 53C53.8954 53 53 53.8954 53 55C53 56.1046 53.8954 57 55 57Z" fill="white" fill-opacity="0.7"/>
<path d="M75 66.5C75.8284 66.5 76.5 65.8284 76.5 65C76.5 64.1716 75.8284 63.5 75 63.5C74.1716 63.5 73.5 64.1716 73.5 65C73.5 65.8284 74.1716 66.5 75 66.5Z" fill="white" fill-opacity="0.5"/>
<path d="M85 51C85.5523 51 86 50.5523 86 50C86 49.4477 85.5523 49 85 49C84.4477 49 84 49.4477 84 50C84 50.5523 84.4477 51 85 51Z" fill="white" fill-opacity="0.4"/>
<path d="M120 62C121.105 62 122 61.1046 122 60C122 58.8954 121.105 58 120 58C118.895 58 118 58.8954 118 60C118 61.1046 118.895 62 120 62Z" fill="white" fill-opacity="0.7"/>
<path d="M140 71.5C140.828 71.5 141.5 70.8284 141.5 70C141.5 69.1716 140.828 68.5 140 68.5C139.172 68.5 138.5 69.1716 138.5 70C138.5 70.8284 139.172 71.5 140 71.5Z" fill="white" fill-opacity="0.5"/>
<path d="M60 121.5C60.8284 121.5 61.5 120.828 61.5 120C61.5 119.172 60.8284 118.5 60 118.5C59.1716 118.5 58.5 119.172 58.5 120C58.5 120.828 59.1716 121.5 60 121.5Z" fill="white" fill-opacity="0.6"/>
<path d="M80 136C80.5523 136 81 135.552 81 135C81 134.448 80.5523 134 80 134C79.4477 134 79 134.448 79 135C79 135.552 79.4477 136 80 136Z" fill="white" fill-opacity="0.4"/>
<path d="M125 126.5C125.828 126.5 126.5 125.828 126.5 125C126.5 124.172 125.828 123.5 125 123.5C124.172 123.5 123.5 124.172 123.5 125C123.5 125.828 124.172 126.5 125 126.5Z" fill="white" fill-opacity="0.6"/>
<path d="M145 141C145.552 141 146 140.552 146 140C146 139.448 145.552 139 145 139C144.448 139 144 139.448 144 140C144 140.552 144.448 141 145 141Z" fill="white" fill-opacity="0.4"/>
</g>
<defs>
<filter id="filter0_d_89_34" x="-4" y="0" width="208" height="208" filterUnits="userSpaceOnUse" color-interpolation-filters="sRGB">
<feFlood flood-opacity="0" result="BackgroundImageFix"/>
<feColorMatrix in="SourceAlpha" type="matrix" values="0 0 0 0 0 0 0 0 0 0 0 0 0 0 0 0 0 0 127 0" result="hardAlpha"/>
<feOffset dy="4"/>
<feGaussianBlur stdDeviation="2"/>
<feComposite in2="hardAlpha" operator="out"/>
<feColorMatrix type="matrix" values="0 0 0 0 0 0 0 0 0 0 0 0 0 0 0 0 0 0 0.25 0"/>
<feBlend mode="normal" in2="BackgroundImageFix" result="effect1_dropShadow_89_34"/>
<feBlend mode="normal" in="SourceGraphic" in2="effect1_dropShadow_89_34" result="shape"/>
</filter>
<linearGradient id="paint0_linear_89_34" x1="5" y1="5" x2="19005" y2="19005" gradientUnits="userSpaceOnUse">
<stop stop-color="#667EEA"/>
<stop offset="1" stop-color="#764BA2"/>
</linearGradient>
<linearGradient id="paint1_linear_89_34" x1="45" y1="45" x2="5045" y2="5045" gradientUnits="userSpaceOnUse">
<stop stop-color="#FF6B6B"/>
<stop offset="1" stop-color="#E74C3C"/>
</linearGradient>
<linearGradient id="paint2_linear_89_34" x1="104" y1="45" x2="5104" y2="5045" gradientUnits="userSpaceOnUse">
<stop stop-color="#FFD93D"/>
<stop offset="1" stop-color="#F39C12"/>
</linearGradient>
<linearGradient id="paint3_linear_89_34" x1="45" y1="104" x2="5045" y2="5104" gradientUnits="userSpaceOnUse">
<stop stop-color="#74B9FF"/>
<stop offset="1" stop-color="#3498DB"/>
</linearGradient>
<linearGradient id="paint4_linear_89_34" x1="104" y1="104" x2="5104" y2="5104" gradientUnits="userSpaceOnUse">
<stop stop-color="#B2BEC3"/>
<stop offset="1" stop-color="#95A5A6"/>
</linearGradient>
</defs>
</svg>
